<svg xmlns="http://www.w3.org/2000/svg" fill="none" viewBox="0 0 600 600"><path fill="currentColor" d="M560.1 149.7a53 53 0 0 1 6.5 26.7v247.2q0 14.9-6.2 26.1a51 51 0 0 1-19.6 19.4l-89.3 51.4L327.8 592a52 52 0 0 1-56.7-.5 21793 21793 0 0 0-128.5-74.2c-34.6-20-66.8-38.4-83.4-48.1a51 51 0 0 1-19.6-19.3 53 53 0 0 1-6.3-26.2V176.4q-.1-30.2 25.9-45.5L143 82.6c52.8-30.4 111-63.9 128-74a52 52 0 0 1 56.8-.5l213 122.8a51 51 0 0 1 19.3 18.8M438.1 263c0-34.6-35-119.2-135.3-119.2-64 0-150 40.6-150 157.5 0 116.8 84.3 155 150 155 106.2 0 131.6-73.6 131.6-115.2l-79.1-4.5s2 48-53 48c-50.8 0-59.3-62.2-59.3-83.3 0-32.2 11.5-83.9 59.3-83.9 47.9 0 52.8 45 52.8 45z"/></svg>