<svg xmlns="http://www.w3.org/2000/svg" fill="none" viewBox="0 0 600 600"><g fill="currentColor"><path d="M365.1 75.6 511 23l77.2 157-100.6 123V112.6h-375v375h375V344L600 386l-94.6 214-150-32.4-77.5-60-83.3 75.1L0 441.1l55.4-332L228.7 0z"/><path d="M159.2 416.6H300v23.5H159.2zM300.3 159h31.3v115H393v26h-92.8zm-151 72.6v-1.5a72 72 0 0 1 73.9-73.4c20.9-1 41.2 7 55.9 21.9l-19.7 22.9a52 52 0 0 0-36.3-16c-23.6 0-40.7 19.4-41 43.3l-.1 1.3c0 24.3 16.8 44.5 41 44.5 16.3 0 26.2-6.2 37.6-16.6l19.5 20.1a73 73 0 0 1-58.2 25 71.6 71.6 0 0 1-72.7-71.5"/></g></svg>