<svg xmlns="http://www.w3.org/2000/svg" fill="none" viewBox="0 0 600 600"><g fill="currentColor"><path d="m347 0 214.8 93.3L600 338.9 529.3 380l32.3-285-41 360.9-33.1-11.4V111.7h-375v254.9L0 276.9V4.3l287 45.4z"/><path d="M112.5 366.6v120.1h150.8L405.4 600 5.2 535.8l67-201.4zm150.8 120.1h173.5L405.4 600z"/><path d="M150.6 160.5H211c48.3 0 81.8 32.8 82.5 75.9v1.7c0 43.8-33.7 77.6-82.5 77.6h-60.5zm34 30.8v93.8h26.5a44.3 44.3 0 0 0 46.8-46.4v-.6a44.6 44.6 0 0 0-46.8-46.8zm115 47.3v-.5a79.7 79.7 0 0 1 81.3-80.3 85 85 0 0 1 61 21.3l-21.5 26a57 57 0 0 0-39.4-15.8h-1.1c-24.8 0-44.2 21.6-44.6 47.6v1.2c0 28.4 19.5 49.3 47 49.3 11.5.4 22.8-2.9 32.3-9.3V256h-34.4v-29.5h67.4v67.4c-18.4 16-42 24.7-66.3 24.6-48.4 0-81.6-34-81.6-79.8M147 416.4h140.6v23.4H147z"/></g></svg>