<svg xmlns="http://www.w3.org/2000/svg" fill="none" viewBox="0 0 600 600"><g fill="currentColor"><path fill-rule="evenodd" d="M232.2 518.8 48.4 585.2l38.5-134.8 8.1-27.2-88.2-69.7 51.9-96.2L0 237.7 86.9 0l196.4 23.2 55.5 68.1 72.4-81.5L600 160l-10.8 347.5L358 600zm258-251.7V112.5h-375v375h149l-20.9 20.4 21-20.4h225.9zl92.4-90.2z" clip-rule="evenodd"/><path d="M162 416.6h140.6v23.5H161.9zm70-231.5v-25.6h-70v25.6h19.7v88.5h-19.6v25.6h70v-25.6h-19.6v-88.5zM298.8 301l.4.3c-9.5.3-19-1.9-27.4-6.3q-10.6-5.6-18.3-14.7l19.3-21.6q5.3 6 12.1 10.2a25 25 0 0 0 13.5 3.8 18 18 0 0 0 13.7-5.4 26 26 0 0 0 5-17.7v-90.2h31.2v91.5q.3 11.3-3.4 21.8a41 41 0 0 1-25.5 25 62 62 0 0 1-20.6 3.3"/></g></svg>