<svg xmlns="http://www.w3.org/2000/svg" fill="none" viewBox="0 0 600 600"><path fill="currentColor" d="M552.7 461c-32.7-.8-58 2.5-79.2 11.5-6.1 2.4-16 2.4-16.7 10.2 3.2 3.2 3.6 8.5 6.5 13a96 96 0 0 0 21.2 25q12.8 10 26.1 18.7c16 9.8 33.9 15.5 49.4 25.3 9 5.7 18 13 27 19.2 4.4 3.2 7.3 8.5 13 10.6v-1.2c-2.9-3.7-3.7-9-6.5-13.1l-12.3-11.8a194 194 0 0 0-42.4-41.2c-13-9-41.6-21.3-47-36.4l-.8-.8c9-.8 19.6-4 28.2-6.5 13.9-3.7 26.5-2.9 40.8-6.5q9.7-2.6 19.6-5.8v-3.6c-7.3-7.4-12.7-17.2-20.4-24.1a544 544 0 0 0-67.3-50.2c-12.7-8.2-29-13.5-42.5-20.4-4.9-2.5-13-3.7-15.9-7.8-7.3-9-11.4-20.8-16.7-31.4a1030 1030 0 0 1-33.5-71c-7.3-15.9-11.8-31.8-20.8-46.5-42-69.4-87.7-111.4-158-152.6-15-8.6-33-12.3-52.2-16.8l-30.6-1.6c-6.5-2.8-13-10.6-18.7-14.3C79.7 16.2 19.7-15.6 2.6 26.4-8.4 53 18.9 79.1 28.3 92.6c7 9.3 15.9 20 20.8 30.6 2.9 6.9 3.7 14.2 6.5 21.6 6.6 18 12.7 38 21.2 54.7 4.5 8.5 9.4 17.5 15.1 25.3 3.3 4.5 9 6.5 10.2 13.8-5.7 8.2-6 20.4-9.3 30.6-14.7 46.2-9 103.3 11.8 137.2 6.5 10.2 22 32.6 42.8 24 18.4-7.3 14.3-30.6 19.6-51 1.3-4.9.4-8.1 2.9-11.4v.8q8.6 17 16.7 33.9a233 233 0 0 0 53 54.7c9.9 7.3 17.6 20 29.9 24.5v-1.3h-.9c-2.4-3.6-6-5.3-9.3-8.1A198 198 0 0 1 238 448a525 525 0 0 1-45.7-74.3c-6.5-12.6-12.2-26.5-17.5-39.2-2.5-4.9-2.5-12.2-6.5-14.6-6.2 9-15.1 16.7-19.6 27.7-7.8 17.5-8.6 39.2-11.5 61.6-1.6.4-.8 0-1.6.8-13-3.2-17.5-16.7-22.4-28.1-12.3-29-14.3-75.5-3.7-109 2.8-8.5 15-35.5 10.2-43.6-2.5-7.8-10.6-12.3-15.1-18.4-5.3-7.8-11-17.6-14.7-26.1-9.8-22.9-14.7-48.2-25.3-71-4.9-10.6-13.5-21.7-20.4-31.5-7.8-11-16.3-18.7-22.4-31.8-2-4.5-5-11.8-1.7-16.7.8-3.3 2.5-4.5 5.7-5.3 5.3-4.5 20.4 1.2 25.7 3.7A208 208 0 0 1 92 52.6c5.8 4 11.9 11.8 19.2 13.8h8.6c13 2.9 27.7.9 40 4.5 21.6 7 41.2 17.2 58.7 28.2a362 362 0 0 1 127.4 139.5c4.9 9.4 6.9 18 11.4 27.8 8.6 20 19.2 40.4 27.7 60 8.6 19.2 16.8 38.7 29 54.7 6.1 8.5 30.6 13 41.6 17.5 8.2 3.7 20.9 7 28.2 11.4a715 715 0 0 1 40.8 27.8c6.5 4.9 27 15 28.2 23.2"/><path fill="currentColor" d="M136.4 106.4c-7 0-11.8.8-16.7 2v.9h.8c3.3 6.5 9 11 13 16.7 3.3 6.5 6.2 13 9.5 19.6l.8-.8q8.5-5.8 8.5-20.4c-2.4-2.9-2.8-5.7-4.9-8.6-2.4-4-7.7-6.1-11-9.4"/></svg>