<svg xmlns="http://www.w3.org/2000/svg" fill="none" viewBox="0 0 600 600"><g fill="currentColor"><path d="m247.3 551-41.6 49L0 480 36.8 92.2 256.6 0 366 71.7 446.3 0l16.5 112.5H112.5v375h375V150.3L596 240.5l-48.3 98.2 52.3 198L417 599z"/><path d="M159.3 416.6h140.6v23.5H159.3zm0-257.2H217c33.1 0 53.4 19.5 53.8 47.7v1.2c0 32.5-25.3 49.4-56.8 49.4h-23.3v42.1h-31.2zm55.4 70.8c15.2 0 24.2-8.9 24.5-20.7v-1c0-13.8-9.6-21.3-25-21.3h-23.6v43zm72.7-.1v-.4a71.3 71.3 0 0 1 73.2-72.6c20.7-1 40.9 6.8 55.4 21.6l-19.6 22.7a52 52 0 0 0-36-15.9c-23.4 0-40.3 19.3-40.7 43v1.2c0 24 16.7 44.1 40.7 44.1 14.6 0 24-5.2 34-13.7l1.5-1.4 1.5-1.3 19.6 19.8a72 72 0 0 1-57.6 25 71 71 0 0 1-72-72.1"/></g></svg>