<svg xmlns="http://www.w3.org/2000/svg" fill="none" viewBox="0 0 600 600"><path fill="currentColor" d="M579.1 64.8 455.5 5.3a37 37 0 0 0-43 7.3q1.9-2 4-3.3-2 1.5-3.6 3.2L176.2 228.2l-103-78.1a25 25 0 0 0-32 1.4l-33 30a25 25 0 0 0 0 37L97.5 300 8.2 381.5a25 25 0 0 0 0 37l33 30a25 25 0 0 0 32 1.4l103-78.1L413 587.5q1.9 2 4 3.5-2.3-1.4-4.4-3.5a37 37 0 0 0 43 7.2l123.6-59.5a38 38 0 0 0 21.3-33.8V500q0 3-.6 5.6l.2-4v-403q0-2.2-.3-4.3.7 2.7.7 5.7v-1.4c0-14.4-8.3-27.6-21.3-33.8M450 435.9 270.8 300 450 164z"/></svg>