<svg xmlns="http://www.w3.org/2000/svg" fill="none" viewBox="0 0 600 600"><g fill="currentColor"><path fill-rule="evenodd" d="m600 203.2-65.6 68.4 65.6 123-112.5 66.8V112.5h-375v375h331l-9.9 6-21 106.5L81 542.3 0 62.9 149.6.9 245 57.5l87.5-47.2L360.2 21l21.9-21 140.5 12 29.2 72z" clip-rule="evenodd"/><path d="M159.3 416.6h140.6v23.5H159.3zm133-257.4-20.9 82-23.9-82h-23.8l-24 82-20.9-82H146l40.2 140.7h26.4l23-81.5 22.7 81.5H285l40.1-140.7zM331 280.4l18.3-22.5a65 65 0 0 0 42.1 17.1c12.5 0 20.4-5 20.4-13.3v-.4c0-4.4-1.5-7.7-7.2-10.7l-.8-.5-1-.4-.5-.3-1-.4-.6-.3-1.2-.4-1.3-.5-.6-.2-1.4-.5-.7-.2-1.5-.5-1.5-.5-.8-.2-1.7-.5-1.8-.5-1.9-.5-2-.6-3.7-1-2.7-.7-1.7-.4-1.7-.5-1.7-.5-1.7-.6-1.6-.5-1.6-.5q-.4 0-.8-.3l-1.5-.5-1.5-.6-1.5-.6-1.4-.6q-.4 0-.7-.3l-1.4-.6-1.4-.6c-13-6.5-20.8-16-21-33.6v-1.4c0-25.3 20-42.1 48.4-42.5h.9c19-.3 37.6 6 52.4 18l-16.1 23.3a66 66 0 0 0-36.7-13.9c-12 0-18.2 5.5-18.2 12.5v.5c0 5.6 2.4 9 9.6 12.2l1 .5 1.2.5 1.2.4 1.3.5 1.4.4 1.4.5 1.5.5 1.6.4 2.6.8 1.8.5 1.8.5 4 1 2 .6 2 .5 1 .3 1.8.5 1.8.6 1.8.6 1.8.6 1.7.6q.5 0 .8.3l1.7.6c18 7.1 28.1 17.4 28.4 36.4v1.2c0 28-21.4 43.7-51.8 43.7-22 .1-43.3-8-59.8-22.5"/></g></svg>